<?xml version="1.0" encoding="UTF-8" standalone="no"?>
<!-- Created with Inkscape (http://www.inkscape.org/) -->

<svg
   version="1.1"
   id="svg1"
   width="405.44"
   height="118.08"
   viewBox="0 0 405.44 118.08"
   sodipodi:docname="Rummikub2.svg"
   inkscape:version="1.4 (86a8ad7, 2024-10-11)"
   xmlns:inkscape="http://www.inkscape.org/namespaces/inkscape"
   xmlns:sodipodi="http://sodipodi.sourceforge.net/DTD/sodipodi-0.dtd"
   xmlns="http://www.w3.org/2000/svg"
   xmlns:svg="http://www.w3.org/2000/svg">
  <defs
     id="defs1" />
  <sodipodi:namedview
     id="namedview1"
     pagecolor="#ffffff"
     bordercolor="#000000"
     borderopacity="0.25"
     inkscape:showpageshadow="2"
     inkscape:pageopacity="0.0"
     inkscape:pagecheckerboard="0"
     inkscape:deskcolor="#d1d1d1"
     inkscape:zoom="23.11375"
     inkscape:cx="177.94603"
     inkscape:cy="45.989942"
     inkscape:window-width="3840"
     inkscape:window-height="2036"
     inkscape:window-x="-12"
     inkscape:window-y="-12"
     inkscape:window-maximized="1"
     inkscape:current-layer="g1" />
  <g
     inkscape:groupmode="layer"
     inkscape:label="Image"
     id="g1">
    <path
       style="fill:#000000"
       d="m 67.2,105.12328 c -1.144,-0.25578 -3.448,-1.13838 -5.12,-1.96132 -2.543314,-1.25181 -3.484402,-1.94604 -5.76,-4.249117 -4.043786,-4.092612 -7.171135,-9.385801 -14.860928,-25.152842 -2.660964,-5.456 -5.33783,-10.856 -5.948593,-12 C 34.434811,59.745204 34.357368,59.676916 33.04,59.581602 l -1.36,-0.0984 v 6.0984 6.098399 h 2.08 2.08 v 2.88 2.88 H 23.52 11.2 v -2.88 -2.88 h 1.233516 1.233516 l 0.172898,-4.878024 c 0.09509,-2.682913 0.09406,-12.546913 -0.0023,-21.92 L 13.66244,27.84 H 12.27122 10.88 v -3.2 -3.2 h 17.886293 c 16.937944,0 17.995346,0.03368 19.943082,0.635278 4.027832,1.24407 8.286572,4.877936 10.430208,8.89981 1.336289,2.507135 2.29596,6.166869 2.322909,8.858481 0.01372,1.370357 0.116976,2.005158 0.264769,1.627757 0.191681,-0.489472 2.008058,-1.132863 8.697509,-3.080803 L 78.88,35.918396 79.04,51.159198 c 0.140521,13.385238 0.224479,15.357683 0.689596,16.200803 1.442281,2.614429 3.593258,3.27395 6.774594,2.07719 3.154701,-1.186741 3.093211,-0.927689 3.094614,-13.03719 l 0.0012,-10.32 H 87.987062 86.37412 L 86.46706,43.44154 86.56,40.803078 94.24,38.496067 c 4.224,-1.268856 8.076,-2.39699 8.56,-2.506964 l 0.88,-0.199954 v 18.745426 18.745426 h 0.96 0.96 v 2.56 2.56 h -8 -8 v -2.08 c 0,-1.144 -0.07486,-2.08 -0.166359,-2.08 -0.0915,0 -0.711171,0.343925 -1.377052,0.764277 -2.240932,1.414638 -5.667596,3.011908 -8.070372,3.76184 -1.883855,0.587971 -3.127271,0.745724 -5.906218,0.749323 -3.200008,0.0041 -3.66545,-0.07272 -5.12,-0.845601 -0.88,-0.467588 -1.988361,-1.259588 -2.463024,-1.76 C 64.652011,74.964796 64.64,74.854637 64.64,59.877584 V 46.13461 l -2.028307,-0.107305 -2.028308,-0.107304 -0.842418,1.795076 c -1.058403,2.25531 -3.230959,4.688653 -5.863144,6.566942 C 52.75702,55.081807 51.84,55.958448 51.84,56.23011 c 0,1.891054 3.795966,10.692793 6.891381,15.979106 3.684056,6.291585 10.245465,15.939112 11.683812,17.179218 2.755641,2.375844 5.756405,3.415004 9.840558,3.407769 5.124229,-0.0091 9.877609,-2.36242 14.689833,-7.272768 l 2.625584,-2.679121 2.334416,0.687685 c 1.283926,0.378226 2.459286,0.806327 2.611906,0.951334 0.15325,0.145609 -0.4671,1.496361 -1.38558,3.016948 C 93.709172,99.789004 85.563052,105.10276 73.6,105.4595 c -3.03352,0.0905 -4.939415,-0.01 -6.4,-0.33622 z M 38.532418,51.514623 C 42.771683,49.372309 45.080134,44.618202 44.732283,38.746397 44.558128,35.806613 43.762637,33.87609 41.886922,31.841179 39.716708,29.486775 37.749679,28.557238 33.842356,28.03965 31.624058,27.7458 31.68,27.418375 31.68,40.695695 v 11.84998 l 2.64,-0.118215 c 2.010237,-0.09002 3.015096,-0.30777 4.212418,-0.912837 z m 22.806179,-8.374622 c -0.102153,-0.255275 -0.177979,-0.179449 -0.193333,0.193333 -0.01389,0.337333 0.06174,0.526333 0.16807,0.42 0.106333,-0.106333 0.117701,-0.382333 0.02526,-0.613333 z m 309.300553,36.5051 c -1.9978,-0.332894 -4.50583,-1.183966 -7.6788,-2.60571 l -2.31965,-1.03939 -3.5e-4,-22.517322 c -3.8e-4,-24.70073 0.15279,-22.718407 -1.69667,-21.958484 -0.52455,0.215531 -0.56767,0.05584 -0.48,-1.777615 L 358.56,27.732161 368,24.583478 c 5.192,-1.731776 9.69955,-3.231611 10.01677,-3.332967 0.51744,-0.165328 0.56682,0.0063 0.48,1.668102 l -0.0968,1.852386 -1.52,0.470683 -1.52,0.470682 v 8.103818 c 0,7.508928 0.14166,8.849039 0.81947,7.752322 0.52505,-0.849554 5.23707,-3.560151 7.25361,-4.172658 3.22495,-0.979548 7.1078,-0.763977 9.47552,0.52607 2.93416,1.598674 5.82226,5.336549 7.04635,9.119624 1.65178,5.10486 0.55165,12.90521 -2.55806,18.137602 -1.36938,2.304102 -6.42029,7.612832 -9.21268,9.682911 -5.47972,4.062288 -11.69769,5.7574 -17.54506,4.783048 z m 12.67741,-8.839336 c 3.0347,-2.247344 4.47527,-9.114526 3.05875,-14.581062 -0.62118,-2.397217 -2.11495,-5.74294 -3.19804,-7.162946 -1.53046,-2.006539 -3.91002,-2.555634 -6.53079,-1.507011 l -1.28648,0.514746 0.008,8.845254 c 0.004,4.910455 0.15477,9.482983 0.33815,10.27884 0.40512,1.758194 1.64329,3.441142 2.97535,4.044147 1.28817,0.583136 3.549,0.372445 4.63524,-0.431968 z m -62.00566,8.199131 c -2.13696,-0.84813 -4.34144,-2.982576 -4.80512,-4.652483 -0.21796,-0.784933 -0.34286,-6.141414 -0.34399,-14.752412 l -0.002,-13.52 h -1.20909 -1.2091 l -0.37236,2.730746 c -0.73899,5.41934 -3.05436,8.566826 -8.00318,10.879423 -1.73038,0.808611 -2.96627,1.578488 -2.96627,1.847791 0,0.595342 4.72428,6.809063 7.15669,9.413007 1.80765,1.935122 1.93421,2.009033 3.44,2.009033 H 314.56 v 2.72 2.72 l -8.56,-0.0033 -8.56,-0.0033 -3.61197,-5.036722 c -4.75468,-6.630184 -5.29407,-7.267297 -5.94211,-7.018621 -0.43953,0.168663 -0.52592,0.729114 -0.52592,3.411857 v 3.210043 h 1.29294 1.29294 l -0.0929,2.64 -0.0929,2.64 -9.50461,0.08474 -9.50461,0.08474 -0.19615,-1.045593 c -0.10789,-0.575077 -0.15081,-1.751548 -0.0954,-2.614382 0.0888,-1.383091 0.19316,-1.582707 0.88133,-1.68638 0.42931,-0.06468 0.86131,-0.19824 0.96,-0.296809 0.0987,-0.09857 0.22565,-9.618642 0.28214,-21.155717 0.0988,-20.185314 0.0807,-20.967476 -0.48,-20.737243 -1.68666,0.692544 -1.70278,0.680053 -1.70278,-1.31986 v -1.88119 l 9.84563,-3.276132 c 5.41509,-1.801872 9.95109,-3.276132 10.08,-3.276132 0.1289,0 0.23437,0.777538 0.23437,1.727863 v 1.727862 l -1.6,0.575352 -1.6,0.575352 v 7.750614 c 0,4.262837 0.0874,7.978391 0.19424,8.256786 0.30551,0.796146 0.92409,0.612601 3.21019,-0.952529 4.13011,-2.827583 7.3174,-4.020888 10.79325,-4.04094 4.64704,-0.02681 6.96672,1.236843 10.21168,5.562825 l 1.12755,1.503184 0.27155,-1.462722 0.27154,-1.462721 8.64,-2.518886 c 4.752,-1.385387 8.676,-2.519595 8.72,-2.520462 0.044,-8.68e-4 0.08,6.844159 0.08,15.211171 0,14.296467 0.0365,15.284258 0.60595,16.4 0.93132,1.824755 1.75274,2.399134 3.63901,2.544571 1.3691,0.105562 1.99651,-0.03582 3.43504,-0.774084 0.96818,-0.496871 1.93784,-1.263154 2.15528,-1.703235 0.28869,-0.584257 0.39656,-3.583081 0.4,-11.12 l 0.005,-10.32 h -1.44 -1.44 v -2.664689 -2.664688 l 7.92,-2.344057 c 4.356,-1.289232 8.172,-2.410917 8.48,-2.492634 0.52866,-0.14026 0.56,0.901362 0.56,18.608746 v 18.757322 h 0.96 0.96 v 2.56 2.56 h -8 -8 v -2.066094 -2.066094 l -3.6,1.878836 c -4.71784,2.462234 -7.26751,3.232083 -11.28,3.405889 -2.73166,0.118326 -3.45306,0.03818 -4.9291,-0.547642 z M 292.03137,57.440001 c 2.2166,-1.32 4.21525,-2.4 4.44143,-2.4 0.22618,0 0.79566,0.504 1.26551,1.12 1.75289,2.298163 3.24805,0.922729 2.98552,-2.746459 -0.13456,-1.880676 -0.31686,-2.443183 -1.11209,-3.431477 -1.31385,-1.632818 -2.71722,-2.519207 -4.68615,-2.959835 -2.04211,-0.457004 -4.73745,0.0054 -6.34585,1.088708 l -1.05974,0.713758 -0.0875,5.507652 c -0.0573,3.606499 0.0257,5.507653 0.24058,5.507653 0.18048,0 2.14173,-1.08 4.35834,-2.4 z m -183.87137,18.4 v -2.56 h 1.28 1.28 v -13.6 -13.6 h -1.28 -1.28 v -2.669772 -2.669771 l 2.16,-0.64996 c 1.188,-0.357478 4.536,-1.375143 7.44,-2.261478 2.904,-0.886335 5.82,-1.712482 6.48,-1.835882 l 1.2,-0.224364 v 2.915614 c 0,1.603587 0.0671,2.915613 0.14899,2.915613 0.0819,0 1.40197,-0.816733 2.93339,-1.814962 8.27764,-5.395639 14.81514,-5.14109 19.36312,0.753935 0.72178,0.935565 1.47607,1.701027 1.6762,1.701027 0.20013,0 1.65862,-0.885573 3.24108,-1.96794 1.58247,-1.082367 3.81322,-2.41318 4.95722,-2.957362 1.91339,-0.910169 2.34914,-0.989633 5.44,-0.99206 2.92051,-0.0023 3.56928,0.09993 4.96,0.781527 2.04846,1.003957 4.61188,3.567376 5.61584,5.615835 l 0.78416,1.6 0.0979,14.48 0.0979,14.48 h 1.58209 1.5821 v 2.56 2.56 H 167.36 156.8 v -2.56 -2.56 h 1.76 1.76 l -0.005,-11.76 c -0.005,-11.595779 -0.0153,-11.777875 -0.72483,-13.04 -1.65685,-2.947321 -6.15923,-3.261531 -8.58911,-0.599412 l -0.8392,0.919412 -0.20168,8.087528 c -0.11092,4.44814 -0.1071,9.95614 0.008,12.24 l 0.21016,4.152472 h 1.07072 1.07071 v 2.56 2.56 h -9.92 -9.92 v -2.56 -2.56 h 1.23257 1.23257 l 0.20551,-2.64 c 0.11303,-1.452 0.20322,-6.816 0.2004,-11.92 -0.005,-8.504341 -0.0571,-9.394681 -0.62782,-10.652045 -0.46316,-1.020477 -0.93158,-1.501093 -1.82809,-1.875677 -2.07406,-0.866599 -5.22153,-0.149094 -6.80586,1.55148 -0.62925,0.675421 -0.64928,1.080063 -0.64928,13.116582 v 12.41966 h 1.07594 c 1.06643,0 1.07778,0.01565 1.28385,1.768958 0.11435,0.972928 0.11856,2.124928 0.009,2.56 l -0.19854,0.791042 H 117.88531 108.16 Z m 70.08,0 v -2.56 h 1.28 1.28 v -13.6 -13.6 h -1.28 -1.28 v -2.667536 -2.667536 l 1.84,-0.532042 c 1.012,-0.292622 4.42675,-1.323476 7.58834,-2.290784 3.16159,-0.967309 6.22159,-1.847525 6.8,-1.956036 L 195.52,35.768774 v 2.915614 c 0,1.603587 0.108,2.915269 0.24,2.91485 0.132,-4.2e-4 1.104,-0.590394 2.16,-1.311054 8.70162,-5.938358 15.39924,-5.872364 20.08735,0.197928 0.74396,0.963298 1.49861,1.751999 1.677,1.752669 0.17839,6.71e-4 1.93657,-1.058852 3.90707,-2.354496 4.57437,-3.007738 7.06317,-3.865875 10.61556,-3.660231 3.14988,0.182344 5.43544,1.225189 7.48318,3.414388 1.87482,2.004334 2.666,3.592619 2.9713,5.964902 0.13567,1.054161 0.25835,7.676657 0.27261,14.716657 l 0.0259,12.8 1.68,0.09672 1.68,0.09672 v 2.543277 2.543277 h -10.51594 -10.51594 l -0.20791,-1.768958 c -0.11435,-0.972927 -0.11856,-2.124927 -0.009,-2.56 0.17733,-0.706521 0.36579,-0.791042 1.76385,-0.791042 H 230.4 l -5e-4,-11.76 c -4.4e-4,-10.563699 -0.0574,-11.87162 -0.56,-12.857253 -0.80983,-1.588191 -2.02024,-2.345276 -4.01389,-2.510605 -1.89626,-0.157252 -3.24991,0.347441 -4.78561,1.784259 l -0.88,0.823337 V 61.01987 73.280001 h 1.12 1.12 v 2.56 2.56 h -9.92 -9.92 V 75.8584 73.3168 l 1.36,-0.0984 1.36,-0.0984 0.0839,-11.920954 c 0.0912,-12.959637 0.0243,-13.549187 -1.66179,-14.653985 -1.44349,-0.94581 -3.41115,-0.965185 -5.40317,-0.0532 -2.93056,1.341652 -2.79872,0.63449 -2.70284,14.497923 l 0.0839,12.130221 1.2,0.09932 1.2,0.09932 v 2.540683 2.540683 h -9.92 -9.92 z m 70.4,0.01753 v -2.542467 l 1.52,-0.09753 1.52,-0.09753 0.0835,-13.52 0.0835,-13.52 H 250.24347 248.64 v -2.675409 -2.67541 l 1.68,-0.488857 c 0.924,-0.268871 4.68936,-1.368937 8.36747,-2.444591 3.67811,-1.075653 6.88211,-1.955733 7.12,-1.955733 0.35841,0 0.43253,3.181959 0.43253,18.56686 v 18.566861 l 0.8,0.364504 c 0.74756,0.340611 0.8,0.518464 0.8,2.71314 v 2.348635 h -9.6 -9.6 z m 7.52,-41.618041 c -1.40091,-0.438937 -3.27509,-2.105846 -4.08187,-3.630445 -0.54267,-1.025516 -0.70499,-1.882897 -0.71071,-3.754142 -0.007,-2.147869 0.10329,-2.604163 0.96104,-3.991541 2.88305,-4.663222 9.22775,-4.71544 12.08161,-0.09943 2.97539,4.812589 -0.0309,11.298873 -5.4006,11.652069 -1.03921,0.06835 -2.32147,-0.01107 -2.84947,-0.176508 z"
       id="path1"
       sodipodi:nodetypes="cssssscccccccccccccsccccccsssssscsssscccccsscccccccccsssscssscccssssssscsssccssssscssssssssscssscssscccssssssssscsssccsscccsccccssssscccccssscccccccssssssscssscccssssscccsssssssccccccssscccccccccsscccsssssscssccccccccccccssscsssssssssscccccccccccccccscsccccccccccccsccssscsscccccccccccccccssscsssssssssscccccccscscsssscccccccccccccssssccccccccccccccccccsssscssccccsscsssss" />
  </g>
</svg>
